<svg width="177" height="42" viewBox="0 0 177 42" fill="none" xmlns="http://www.w3.org/2000/svg">
<path d="M21.088 21.528C20.8427 20.8453 20.72 20.136 20.72 19.4C20.72 18.664 20.8427 17.9547 21.088 17.272C21.344 16.5893 21.7067 15.976 22.176 15.432C22.6453 14.8773 23.2587 14.4347 24.016 14.104C24.7733 13.7733 25.6267 13.608 26.576 13.608C27.5253 13.608 28.3787 13.7733 29.136 14.104C29.8933 14.4347 30.5067 14.8773 30.976 15.432C31.4453 15.976 31.8027 16.5893 32.048 17.272C32.304 17.9547 32.432 18.664 32.432 19.4C32.432 20.136 32.304 20.8453 32.048 21.528C31.8027 22.2107 31.4453 22.8293 30.976 23.384C30.5067 23.928 29.8933 24.3653 29.136 24.696C28.3787 25.0267 27.5253 25.192 26.576 25.192C25.6267 25.192 24.7733 25.0267 24.016 24.696C23.2587 24.3653 22.6453 23.928 22.176 23.384C21.7067 22.8293 21.344 22.2107 21.088 21.528ZM30.784 21.08C30.976 20.5467 31.072 19.9867 31.072 19.4C31.072 18.8133 30.976 18.2533 30.784 17.72C30.6027 17.1867 30.3307 16.7067 29.968 16.28C29.616 15.8533 29.1467 15.5173 28.56 15.272C27.9733 15.016 27.312 14.888 26.576 14.888C25.84 14.888 25.1787 15.016 24.592 15.272C24.0053 15.5173 23.5307 15.8533 23.168 16.28C22.816 16.7067 22.544 17.1867 22.352 17.72C22.1707 18.2533 22.08 18.8133 22.08 19.4C22.08 19.9867 22.1707 20.5467 22.352 21.08C22.544 21.6133 22.816 22.0933 23.168 22.52C23.5307 22.9467 24.0053 23.288 24.592 23.544C25.1787 23.7893 25.84 23.912 26.576 23.912C27.312 23.912 27.9733 23.7893 28.56 23.544C29.1467 23.288 29.616 22.9467 29.968 22.52C30.3307 22.0933 30.6027 21.6133 30.784 21.08ZM41.8443 21.384C41.8443 22.568 41.4816 23.5013 40.7563 24.184C40.0416 24.856 39.0976 25.192 37.9243 25.192C36.7296 25.192 35.7643 24.7973 35.0283 24.008C34.3029 23.2187 33.9403 22.1147 33.9403 20.696C33.9403 19.4587 34.1536 18.392 34.5803 17.496C35.0069 16.6 35.5829 15.928 36.3083 15.48C36.7989 15.1813 37.3056 14.9467 37.8283 14.776C38.3616 14.5947 38.7989 14.4827 39.1403 14.44C39.4923 14.3973 39.8549 14.312 40.2283 14.184C40.6016 14.0453 40.9109 13.8533 41.1562 13.608V14.952C40.8576 15.1653 40.4896 15.3253 40.0523 15.432C39.6149 15.528 39.1296 15.6453 38.5963 15.784C38.0629 15.9227 37.5509 16.136 37.0603 16.424C36.5803 16.712 36.2069 17.0747 35.9403 17.512C35.6736 17.9493 35.4389 18.472 35.2363 19.08C35.5136 18.6533 35.9083 18.3067 36.4203 18.04C36.9323 17.7733 37.4816 17.64 38.0683 17.64C39.1029 17.64 39.9883 17.9867 40.7243 18.68C41.4709 19.3733 41.8443 20.2747 41.8443 21.384ZM35.2203 21.416C35.2203 22.152 35.4656 22.7653 35.9563 23.256C36.4469 23.736 37.0923 23.976 37.8923 23.976C38.7136 23.976 39.3643 23.736 39.8443 23.256C40.3243 22.776 40.5643 22.1627 40.5643 21.416C40.5643 20.6693 40.3243 20.056 39.8443 19.576C39.3643 19.096 38.7136 18.856 37.8923 18.856C37.1243 18.856 36.4843 19.1173 35.9723 19.64C35.4709 20.152 35.2203 20.744 35.2203 21.416ZM44.8516 18.6C45.7156 17.6187 46.7503 17.128 47.9556 17.128C49.0543 17.128 49.9663 17.512 50.6916 18.28C51.4276 19.048 51.7956 20.008 51.7956 21.16C51.7956 22.312 51.4276 23.272 50.6916 24.04C49.9663 24.808 49.0543 25.192 47.9556 25.192C46.7396 25.192 45.7476 24.744 44.9796 23.848V28.52H43.6996V17.32H44.8516V18.6ZM49.7316 23.224C50.2543 22.7013 50.5156 22.0133 50.5156 21.16C50.5156 20.3067 50.2543 19.6187 49.7316 19.096C49.2196 18.5733 48.5796 18.312 47.8116 18.312C47.161 18.312 46.585 18.4933 46.0836 18.856C45.5823 19.2187 45.2143 19.6667 44.9796 20.2V22.12C45.2143 22.6533 45.5823 23.1013 46.0836 23.464C46.585 23.8267 47.161 24.008 47.8116 24.008C48.5796 24.008 49.2196 23.7467 49.7316 23.224ZM59.8771 23.4C59.8771 23.7947 60.0745 23.992 60.4691 23.992C60.6398 23.992 60.8371 23.9547 61.0611 23.88V24.92C60.7411 25.0373 60.4211 25.096 60.1011 25.096C59.3651 25.096 58.8958 24.7867 58.6931 24.168C57.8718 24.8507 56.8745 25.192 55.7011 25.192C54.9545 25.192 54.3145 24.9947 53.7811 24.6C53.2585 24.1947 52.9971 23.6133 52.9971 22.856C52.9971 21.9493 53.3331 21.2933 54.0051 20.888C54.6878 20.472 55.5091 20.264 56.4691 20.264C57.1731 20.264 57.8825 20.344 58.5971 20.504V20.232C58.5971 19.6453 58.4051 19.1813 58.0211 18.84C57.6371 18.488 57.0985 18.312 56.4051 18.312C55.4345 18.312 54.5011 18.504 53.6051 18.888V17.64C54.6078 17.2987 55.5838 17.128 56.5331 17.128C57.5785 17.128 58.3945 17.4107 58.9811 17.976C59.5785 18.5307 59.8771 19.336 59.8771 20.392V23.4ZM54.3091 22.792C54.3091 23.2187 54.4691 23.544 54.7891 23.768C55.1198 23.9813 55.5145 24.088 55.9731 24.088C57.0291 24.088 57.9038 23.7147 58.5971 22.968V21.56C57.8718 21.4107 57.2211 21.336 56.6451 21.336C55.9945 21.336 55.4398 21.4533 54.9811 21.688C54.5331 21.912 54.3091 22.28 54.3091 22.792ZM65.2746 25H63.9946V18.504H61.1626V17.32H68.0906V18.504H65.2746V25ZM70.8234 25H69.5434V17.32H70.8234V20.568H75.2714V17.32H76.5514V25H75.2714V21.752H70.8234V25ZM82.5664 25H78.9184V17.32H80.1984V20.008H82.5664C83.4837 20.008 84.209 20.2427 84.7424 20.712C85.2757 21.1813 85.5424 21.7787 85.5424 22.504C85.5424 23.2293 85.2757 23.8267 84.7424 24.296C84.209 24.7653 83.4837 25 82.5664 25ZM80.1984 21.16V23.848H82.4064C82.9824 23.848 83.4304 23.736 83.7504 23.512C84.081 23.288 84.2464 22.952 84.2464 22.504C84.2464 22.056 84.081 21.72 83.7504 21.496C83.4304 21.272 82.9824 21.16 82.4064 21.16H80.1984ZM88.3104 25H87.0304V17.32H88.3104V25ZM96.46 15.464C95.8307 15.912 95.084 16.136 94.22 16.136C93.356 16.136 92.6093 15.912 91.98 15.464V14.312C92.6947 14.7813 93.4413 15.016 94.22 15.016C94.9987 15.016 95.7453 14.7813 96.46 14.312V15.464ZM91.772 25H90.684V17.32H91.964V22.936L96.668 17.32H97.756V25H96.476V19.384L91.772 25ZM109.85 22.936C109.85 23.6507 109.541 24.2053 108.922 24.6C108.314 24.9947 107.471 25.192 106.394 25.192C105.317 25.192 104.373 24.9947 103.562 24.6V23.384C104.341 23.8 105.231 24.008 106.234 24.008C107.791 24.008 108.57 23.6027 108.57 22.792C108.57 22.056 108.005 21.688 106.874 21.688H105.194V20.504H106.874C107.898 20.504 108.41 20.1733 108.41 19.512C108.41 19.1067 108.218 18.8027 107.834 18.6C107.45 18.3973 106.938 18.296 106.298 18.296C105.37 18.296 104.501 18.4987 103.69 18.904V17.704C104.554 17.3093 105.471 17.112 106.442 17.112C107.487 17.112 108.287 17.3147 108.842 17.72C109.407 18.1147 109.69 18.6533 109.69 19.336C109.69 19.7947 109.562 20.1733 109.306 20.472C109.05 20.7707 108.703 20.968 108.266 21.064C108.725 21.1813 109.103 21.4053 109.402 21.736C109.701 22.0667 109.85 22.4667 109.85 22.936ZM116.067 25H111.731V17.32H115.939C116.632 17.32 117.198 17.5013 117.635 17.864C118.083 18.2267 118.307 18.7387 118.307 19.4C118.307 19.784 118.211 20.1307 118.019 20.44C117.827 20.7493 117.582 20.968 117.283 21.096C117.635 21.2133 117.934 21.4267 118.179 21.736C118.424 22.0453 118.547 22.424 118.547 22.872C118.547 23.5227 118.334 24.04 117.907 24.424C117.491 24.808 116.878 25 116.067 25ZM113.011 21.672V23.88H115.891C116.808 23.88 117.267 23.5173 117.267 22.792C117.267 22.0453 116.824 21.672 115.939 21.672H113.011ZM113.011 18.44V20.568H115.811C116.611 20.568 117.011 20.2213 117.011 19.528C117.011 19.1333 116.894 18.856 116.659 18.696C116.424 18.5253 116.142 18.44 115.811 18.44H113.011ZM121.185 24.12C120.374 23.3947 119.969 22.408 119.969 21.16C119.969 19.912 120.374 18.9307 121.185 18.216C121.995 17.4907 122.955 17.128 124.065 17.128C125.185 17.128 126.145 17.4907 126.945 18.216C127.755 18.9307 128.161 19.912 128.161 21.16C128.161 22.408 127.755 23.3947 126.945 24.12C126.145 24.8347 125.185 25.192 124.065 25.192C122.955 25.192 121.995 24.8347 121.185 24.12ZM126.081 23.224C126.614 22.712 126.881 22.024 126.881 21.16C126.881 20.296 126.614 19.6133 126.081 19.112C125.547 18.6 124.875 18.344 124.065 18.344C123.254 18.344 122.582 18.6 122.049 19.112C121.515 19.6133 121.249 20.296 121.249 21.16C121.249 22.024 121.515 22.712 122.049 23.224C122.582 23.7253 123.254 23.976 124.065 23.976C124.875 23.976 125.547 23.7253 126.081 23.224ZM131.277 25H129.997V17.32H131.277V20.568H135.725V17.32H137.005V25H135.725V21.752H131.277V25ZM140.06 24.12C139.249 23.3947 138.844 22.408 138.844 21.16C138.844 19.912 139.249 18.9307 140.06 18.216C140.87 17.4907 141.83 17.128 142.94 17.128C144.06 17.128 145.02 17.4907 145.82 18.216C146.63 18.9307 147.036 19.912 147.036 21.16C147.036 22.408 146.63 23.3947 145.82 24.12C145.02 24.8347 144.06 25.192 142.94 25.192C141.83 25.192 140.87 24.8347 140.06 24.12ZM144.956 23.224C145.489 22.712 145.756 22.024 145.756 21.16C145.756 20.296 145.489 19.6133 144.956 19.112C144.422 18.6 143.75 18.344 142.94 18.344C142.129 18.344 141.457 18.6 140.924 19.112C140.39 19.6133 140.124 20.296 140.124 21.16C140.124 22.024 140.39 22.712 140.924 23.224C141.457 23.7253 142.129 23.976 142.94 23.976C143.75 23.976 144.422 23.7253 144.956 23.224ZM150.152 25H148.872V17.32H150.152V20.52H151.704L154.136 17.32H155.624L152.712 21.144L155.976 25H154.472L151.656 21.704H150.152V25Z" fill="#CC9933"/>
<path d="M10 1H167V-1H10V1ZM176 10V32H178V10H176ZM167 41H10V43H167V41ZM1 32V10H-1V32H1ZM10 41C5.02943 41 1 36.9706 1 32H-1C-1 38.0751 3.92486 43 10 43V41ZM176 32C176 36.9706 171.971 41 167 41V43C173.075 43 178 38.0751 178 32H176ZM167 1C171.971 1 176 5.02944 176 10H178C178 3.92487 173.075 -1 167 -1V1ZM10 -1C3.92487 -1 -1 3.92487 -1 10H1C1 5.02944 5.02944 1 10 1V-1Z" fill="#CC9933"/>
</svg>
