<svg width="108" height="42" viewBox="0 0 108 42" fill="none" xmlns="http://www.w3.org/2000/svg">
<path d="M39.456 13.8V18.744H32.816V13.8H31.472V25H32.816V20.024H39.456V25H40.8V13.8H39.456ZM49.5646 23.4V20.392C49.5646 18.248 48.2686 17.128 46.2206 17.128C44.9566 17.128 43.9006 17.432 43.2926 17.64V18.888C43.9646 18.6 44.9086 18.312 46.0926 18.312C47.5006 18.312 48.2846 19.08 48.2846 20.232V20.504C47.6446 20.36 46.8286 20.264 46.1566 20.264C44.5086 20.264 42.6846 20.872 42.6846 22.856C42.6846 24.472 44.0286 25.192 45.3886 25.192C46.6366 25.192 47.6126 24.808 48.3806 24.168C48.6046 24.84 49.1646 25.096 49.7886 25.096C50.1086 25.096 50.4446 25.032 50.7486 24.92V23.88C50.5566 23.944 50.3486 23.992 50.1566 23.992C49.8206 23.992 49.5646 23.864 49.5646 23.4ZM43.9966 22.792C43.9966 21.672 45.2126 21.336 46.3326 21.336C46.9566 21.336 47.7406 21.448 48.2846 21.56V22.968C47.6126 23.688 46.6366 24.088 45.6606 24.088C44.8126 24.088 43.9966 23.688 43.9966 22.792ZM57.8975 15.464V14.312C57.0975 14.84 56.4415 15.016 55.6575 15.016C54.8735 15.016 54.2175 14.84 53.4175 14.312V15.464C54.1375 15.976 54.8895 16.136 55.6575 16.136C56.4255 16.136 57.1775 15.976 57.8975 15.464ZM53.2095 25L57.9135 19.384V25H59.1935V17.32H58.1055L53.4015 22.936V17.32H52.1215V25H53.2095ZM64.759 25V18.504H67.575V17.32H60.647V18.504H63.479V25H64.759ZM70.1158 25L74.8198 19.384V25H76.0998V17.32H75.0118L70.3078 22.936V17.32H69.0278V25H70.1158Z" fill="#CC9933"/>
<rect x="0.5" y="0.5" width="107" height="41" rx="9.5" stroke="#CC9933"/>
</svg>
