<svg width="100" height="42" viewBox="0 0 100 42" fill="none" xmlns="http://www.w3.org/2000/svg">
<path d="M29.456 13.8V18.744H22.816V13.8H21.472V25H22.816V20.024H29.456V25H30.8V13.8H29.456ZM32.7498 21.16C32.7498 23.784 34.7658 25.192 36.8458 25.192C38.9418 25.192 40.9418 23.784 40.9418 21.16C40.9418 18.536 38.9418 17.128 36.8458 17.128C34.7658 17.128 32.7498 18.536 32.7498 21.16ZM39.6618 21.16C39.6618 22.936 38.4138 23.976 36.8458 23.976C35.2778 23.976 34.0298 22.936 34.0298 21.16C34.0298 19.384 35.2778 18.344 36.8458 18.344C38.4138 18.344 39.6618 19.384 39.6618 21.16ZM43.9938 25V19.208L46.4898 23H47.4498L49.9458 19.208V25H51.1618V17.32H49.7698L46.9698 21.576L44.1698 17.32H42.7778V25H43.9938ZM52.9998 21.16C52.9998 23.896 54.9838 25.192 57.2558 25.192C58.2638 25.192 59.2718 25 59.9758 24.632V23.384C59.3198 23.752 58.3918 24.008 57.4478 24.008C55.8958 24.008 54.4398 23.336 54.2798 21.72H60.3918C60.8718 19.544 59.7838 17.128 56.8238 17.128C54.9998 17.128 52.9998 18.472 52.9998 21.16ZM59.2558 20.6H54.2798C54.3758 19.096 55.5918 18.312 56.9038 18.312C58.8558 18.312 59.3678 19.784 59.2558 20.6ZM63.4141 18.6V17.32H62.2621V28.52H63.5421V23.848C64.1021 24.504 65.0461 25.192 66.5181 25.192C68.7101 25.192 70.3581 23.464 70.3581 21.16C70.3581 18.856 68.7101 17.128 66.5181 17.128C65.0461 17.128 64.1021 17.816 63.4141 18.6ZM69.0781 21.16C69.0781 22.92 67.8621 24.008 66.3741 24.008C64.9981 24.008 63.9741 23.112 63.5421 22.12V20.2C63.9741 19.208 64.9981 18.312 66.3741 18.312C67.8621 18.312 69.0781 19.4 69.0781 21.16ZM78.4396 23.4V20.392C78.4396 18.248 77.1436 17.128 75.0956 17.128C73.8316 17.128 72.7756 17.432 72.1676 17.64V18.888C72.8396 18.6 73.7836 18.312 74.9676 18.312C76.3756 18.312 77.1596 19.08 77.1596 20.232V20.504C76.5196 20.36 75.7036 20.264 75.0316 20.264C73.3836 20.264 71.5596 20.872 71.5596 22.856C71.5596 24.472 72.9036 25.192 74.2636 25.192C75.5116 25.192 76.4876 24.808 77.2556 24.168C77.4796 24.84 78.0396 25.096 78.6636 25.096C78.9836 25.096 79.3196 25.032 79.6236 24.92V23.88C79.4316 23.944 79.2236 23.992 79.0316 23.992C78.6956 23.992 78.4396 23.864 78.4396 23.4ZM72.8716 22.792C72.8716 21.672 74.0876 21.336 75.2076 21.336C75.8316 21.336 76.6156 21.448 77.1596 21.56V22.968C76.4876 23.688 75.5116 24.088 74.5356 24.088C73.6876 24.088 72.8716 23.688 72.8716 22.792Z" fill="#CC9933"/>
<rect x="0.5" y="0.5" width="99" height="41" rx="9.5" stroke="#CC9933"/>
</svg>
