<svg width="213" height="70" viewBox="0 0 213 70" fill="none" xmlns="http://www.w3.org/2000/svg">
<path d="M32.6 39H30.2V27.8H39.944V39H37.56V29.96H32.6V39ZM42.7128 38.152C41.8914 37.4373 41.4808 36.44 41.4808 35.16C41.4808 33.88 41.8914 32.8827 42.7128 32.168C43.5341 31.4533 44.5368 31.096 45.7208 31.096C46.9154 31.096 47.9181 31.4533 48.7288 32.168C49.5501 32.8827 49.9608 33.88 49.9608 35.16C49.9608 36.44 49.5501 37.4373 48.7288 38.152C47.9181 38.8667 46.9154 39.224 45.7208 39.224C44.5368 39.224 43.5341 38.8667 42.7128 38.152ZM47.1768 36.664C47.5288 36.2693 47.7048 35.768 47.7048 35.16C47.7048 34.552 47.5288 34.056 47.1768 33.672C46.8248 33.2773 46.3394 33.08 45.7208 33.08C45.1021 33.08 44.6168 33.2773 44.2648 33.672C43.9234 34.056 43.7528 34.552 43.7528 35.16C43.7528 35.768 43.9234 36.2693 44.2648 36.664C44.6168 37.048 45.1021 37.24 45.7208 37.24C46.3394 37.24 46.8248 37.048 47.1768 36.664ZM50.9808 35.272C50.9808 34.568 51.1034 33.9387 51.3488 33.384C51.6048 32.8293 51.9408 32.392 52.3568 32.072C52.7728 31.7413 53.2314 31.496 53.7328 31.336C54.2341 31.1653 54.7621 31.08 55.3168 31.08C56.2021 31.08 56.9914 31.2667 57.6848 31.64V33.592C57.0874 33.208 56.4048 33.016 55.6368 33.016C54.9648 33.016 54.3994 33.192 53.9408 33.544C53.4821 33.896 53.2528 34.4347 53.2528 35.16C53.2528 35.8533 53.4821 36.3867 53.9408 36.76C54.3994 37.1227 54.9541 37.304 55.6048 37.304C56.4261 37.304 57.1461 37.1173 57.7648 36.744V38.712C56.9648 39.0533 56.1008 39.224 55.1727 39.224C54.0208 39.224 53.0341 38.888 52.2128 38.216C51.3914 37.5333 50.9808 36.552 50.9808 35.272ZM63.2714 39H61.0634V33.192H58.6154V31.32H65.7194V33.192H63.2714V39ZM68.8808 32.44C69.5101 31.544 70.4381 31.096 71.6648 31.096C72.8274 31.096 73.7394 31.496 74.4008 32.296C75.0728 33.0853 75.4088 34.04 75.4088 35.16C75.4088 36.28 75.0728 37.24 74.4008 38.04C73.7394 38.8293 72.8274 39.224 71.6648 39.224C70.6088 39.224 69.7661 38.8773 69.1368 38.184V42.52H66.9128V31.32H68.8808V32.44ZM72.5928 36.728C72.9554 36.3013 73.1368 35.7787 73.1368 35.16C73.1368 34.5413 72.9554 34.024 72.5928 33.608C72.2301 33.1813 71.7394 32.968 71.1208 32.968C70.6621 32.968 70.2514 33.0907 69.8888 33.336C69.5368 33.5813 69.2808 33.8853 69.1208 34.248V36.072C69.2808 36.4347 69.5368 36.7387 69.8888 36.984C70.2514 37.2293 70.6621 37.352 71.1208 37.352C71.7394 37.352 72.2301 37.144 72.5928 36.728ZM77.6659 38.152C76.8445 37.4373 76.4339 36.44 76.4339 35.16C76.4339 33.88 76.8445 32.8827 77.6659 32.168C78.4872 31.4533 79.4899 31.096 80.6739 31.096C81.8685 31.096 82.8712 31.4533 83.6819 32.168C84.5032 32.8827 84.9139 33.88 84.9139 35.16C84.9139 36.44 84.5032 37.4373 83.6819 38.152C82.8712 38.8667 81.8685 39.224 80.6739 39.224C79.4899 39.224 78.4872 38.8667 77.6659 38.152ZM82.1299 36.664C82.4819 36.2693 82.6579 35.768 82.6579 35.16C82.6579 34.552 82.4819 34.056 82.1299 33.672C81.7779 33.2773 81.2925 33.08 80.6739 33.08C80.0552 33.08 79.5699 33.2773 79.2179 33.672C78.8765 34.056 78.7059 34.552 78.7059 35.16C78.7059 35.768 78.8765 36.2693 79.2179 36.664C79.5699 37.048 80.0552 37.24 80.6739 37.24C81.2925 37.24 81.7779 37.048 82.1299 36.664ZM88.3019 39H86.3659V31.32H88.5899V35.64L92.0139 31.32H93.9339V39H91.7259V34.68L88.3019 39ZM99.787 39H97.579V33.192H95.131V31.32H102.235V33.192H99.787V39ZM107.428 39H103.428V31.32H105.652V33.72H107.428C108.399 33.72 109.156 33.9707 109.7 34.472C110.255 34.9627 110.532 35.592 110.532 36.36C110.532 37.128 110.255 37.7627 109.7 38.264C109.156 38.7547 108.399 39 107.428 39ZM105.636 35.32V37.4H106.884C107.322 37.4 107.658 37.3093 107.892 37.128C108.127 36.9467 108.244 36.6907 108.244 36.36C108.244 36.0293 108.127 35.7733 107.892 35.592C107.658 35.4107 107.322 35.32 106.884 35.32H105.636ZM117.542 39H115.382V31.32H117.51L119.894 35.128L122.294 31.32H124.406V39H122.262V34.472L120.454 37.336H119.35L117.542 34.472V39ZM133.152 37.016C133.152 37.3573 133.333 37.528 133.696 37.528C133.845 37.528 133.984 37.5067 134.112 37.464V38.92C133.706 39.0693 133.296 39.144 132.88 39.144C132.069 39.144 131.504 38.856 131.184 38.28C130.384 38.9093 129.461 39.224 128.416 39.224C127.658 39.224 127.018 39.016 126.496 38.6C125.984 38.1733 125.728 37.5973 125.728 36.872C125.728 36.264 125.909 35.7573 126.272 35.352C126.634 34.9467 127.056 34.6747 127.536 34.536C128.016 34.3867 128.538 34.312 129.104 34.312C129.733 34.312 130.341 34.3813 130.928 34.52V34.248C130.928 33.8533 130.773 33.5387 130.464 33.304C130.154 33.0693 129.706 32.952 129.12 32.952C128.266 32.952 127.36 33.144 126.4 33.528V31.608C127.424 31.2667 128.416 31.096 129.376 31.096C131.893 31.096 133.152 32.2533 133.152 34.568V37.016ZM129.616 35.64C129.157 35.64 128.773 35.7253 128.464 35.896C128.154 36.0667 128 36.3333 128 36.696C128 36.9733 128.112 37.2027 128.336 37.384C128.57 37.5547 128.858 37.64 129.2 37.64C129.872 37.64 130.448 37.432 130.928 37.016V35.816C130.437 35.6987 130 35.64 129.616 35.64ZM137.271 32.44C137.901 31.544 138.829 31.096 140.055 31.096C141.218 31.096 142.13 31.496 142.791 32.296C143.463 33.0853 143.799 34.04 143.799 35.16C143.799 36.28 143.463 37.24 142.791 38.04C142.13 38.8293 141.218 39.224 140.055 39.224C138.999 39.224 138.157 38.8773 137.527 38.184V42.52H135.303V31.32H137.271V32.44ZM140.983 36.728C141.346 36.3013 141.527 35.7787 141.527 35.16C141.527 34.5413 141.346 34.024 140.983 33.608C140.621 33.1813 140.13 32.968 139.511 32.968C139.053 32.968 138.642 33.0907 138.279 33.336C137.927 33.5813 137.671 33.8853 137.511 34.248V36.072C137.671 36.4347 137.927 36.7387 138.279 36.984C138.642 37.2293 139.053 37.352 139.511 37.352C140.13 37.352 140.621 37.144 140.983 36.728ZM156.393 39H145.257V31.32H147.481V37.128H149.721V31.32H151.929V37.128H154.185V31.32H156.393V39ZM160.256 32.44C160.885 31.544 161.813 31.096 163.04 31.096C164.202 31.096 165.114 31.496 165.776 32.296C166.448 33.0853 166.784 34.04 166.784 35.16C166.784 36.28 166.448 37.24 165.776 38.04C165.114 38.8293 164.202 39.224 163.04 39.224C161.984 39.224 161.141 38.8773 160.512 38.184V42.52H158.288V31.32H160.256V32.44ZM163.968 36.728C164.33 36.3013 164.512 35.7787 164.512 35.16C164.512 34.5413 164.33 34.024 163.968 33.608C163.605 33.1813 163.114 32.968 162.496 32.968C162.037 32.968 161.626 33.0907 161.264 33.336C160.912 33.5813 160.656 33.8853 160.496 34.248V36.072C160.656 36.4347 160.912 36.7387 161.264 36.984C161.626 37.2293 162.037 37.352 162.496 37.352C163.114 37.352 163.605 37.144 163.968 36.728ZM171.593 36.504L173.497 31.32H175.801L172.393 39.928C171.636 41.7947 170.532 42.728 169.081 42.728C168.772 42.728 168.372 42.6693 167.881 42.552V40.712C168.233 40.7867 168.537 40.824 168.793 40.824C169.604 40.824 170.212 40.264 170.617 39.144L170.633 39.112L167.001 31.32H169.353L171.593 36.504ZM180.881 39H178.673V33.192H176.225V31.32H183.329V33.192H180.881V39Z" fill="#CC9933"/>
<path d="M10 1H203V-1H10V1ZM212 10V60H214V10H212ZM203 69H10V71H203V69ZM1 60V10H-1V60H1ZM10 69C5.02944 69 1 64.9706 1 60H-1C-1 66.0751 3.92487 71 10 71V69ZM212 60C212 64.9706 207.971 69 203 69V71C209.075 71 214 66.0751 214 60H212ZM203 1C207.971 1 212 5.02944 212 10H214C214 3.92487 209.075 -1 203 -1V1ZM10 -1C3.92487 -1 -1 3.92487 -1 10H1C1 5.02944 5.02944 1 10 1V-1Z" fill="#CC9933"/>
</svg>
