<svg width="107" height="42" viewBox="0 0 107 42" fill="none" xmlns="http://www.w3.org/2000/svg">
<path d="M21.632 25H20.032L24.368 19.24L20.272 13.8H21.872L25.168 18.168L28.448 13.8H30.048L25.968 19.24L30.288 25H28.688L25.168 20.312L21.632 25ZM31.5908 24.12C30.7801 23.3947 30.3748 22.408 30.3748 21.16C30.3748 19.912 30.7801 18.9307 31.5908 18.216C32.4014 17.4907 33.3614 17.128 34.4708 17.128C35.5908 17.128 36.5508 17.4907 37.3508 18.216C38.1614 18.9307 38.5668 19.912 38.5668 21.16C38.5668 22.408 38.1614 23.3947 37.3508 24.12C36.5508 24.8347 35.5908 25.192 34.4708 25.192C33.3614 25.192 32.4014 24.8347 31.5908 24.12ZM36.4868 23.224C37.0201 22.712 37.2868 22.024 37.2868 21.16C37.2868 20.296 37.0201 19.6133 36.4868 19.112C35.9534 18.6 35.2814 18.344 34.4708 18.344C33.6601 18.344 32.9881 18.6 32.4548 19.112C31.9214 19.6133 31.6548 20.296 31.6548 21.16C31.6548 22.024 31.9214 22.712 32.4548 23.224C32.9881 23.7253 33.6601 23.976 34.4708 23.976C35.2814 23.976 35.9534 23.7253 36.4868 23.224ZM46.4028 25H45.1228V22.328C44.4294 22.5947 43.6668 22.728 42.8348 22.728C41.9174 22.728 41.1921 22.4987 40.6588 22.04C40.1361 21.5813 39.8748 20.8933 39.8748 19.976V17.32H41.1548V19.88C41.1548 20.4987 41.3254 20.9307 41.6668 21.176C42.0188 21.4213 42.5361 21.544 43.2188 21.544C43.9334 21.544 44.5681 21.432 45.1228 21.208V17.32H46.4028V25ZM52.0098 23.544L54.6018 17.32H55.9618L52.1858 26.152C51.4498 27.8587 50.4844 28.712 49.2898 28.712C49.0018 28.712 48.7244 28.6747 48.4578 28.6V27.496C48.6818 27.56 48.9058 27.592 49.1298 27.592C49.9511 27.592 50.6124 26.968 51.1138 25.72L51.4018 25.016L47.7538 17.32H49.1138L52.0098 23.544ZM64.5715 25H63.2915V18.504H60.4595V17.32H67.3875V18.504H64.5715V25ZM72.0723 23.544L74.6643 17.32H76.0243L72.2483 26.152C71.5123 27.8587 70.5469 28.712 69.3523 28.712C69.0643 28.712 68.7869 28.6747 68.5203 28.6V27.496C68.7443 27.56 68.9683 27.592 69.1923 27.592C70.0136 27.592 70.6749 26.968 71.1763 25.72L71.4643 25.016L67.8163 17.32H69.1763L72.0723 23.544ZM78.6016 18.6C79.4656 17.6187 80.5003 17.128 81.7056 17.128C82.8043 17.128 83.7163 17.512 84.4416 18.28C85.1776 19.048 85.5456 20.008 85.5456 21.16C85.5456 22.312 85.1776 23.272 84.4416 24.04C83.7163 24.808 82.8043 25.192 81.7056 25.192C80.4896 25.192 79.4976 24.744 78.7296 23.848V28.52H77.4496V17.32H78.6016V18.6ZM83.4816 23.224C84.0043 22.7013 84.2656 22.0133 84.2656 21.16C84.2656 20.3067 84.0043 19.6187 83.4816 19.096C82.9696 18.5733 82.3296 18.312 81.5616 18.312C80.911 18.312 80.335 18.4933 79.8336 18.856C79.3323 19.2187 78.9643 19.6667 78.7296 20.2V22.12C78.9643 22.6533 79.3323 23.1013 79.8336 23.464C80.335 23.8267 80.911 24.008 81.5616 24.008C82.3296 24.008 82.9696 23.7467 83.4816 23.224Z" fill="#CC9933"/>
<path d="M10 1H97V-1H10V1ZM106 10V32H108V10H106ZM97 41H10V43H97V41ZM1 32V10H-1V32H1ZM10 41C5.02944 41 1 36.9706 1 32H-1C-1 38.0751 3.92487 43 10 43V41ZM106 32C106 36.9706 101.971 41 97 41V43C103.075 43 108 38.0751 108 32H106ZM97 1C101.971 1 106 5.02944 106 10H108C108 3.92487 103.075 -1 97 -1V1ZM10 -1C3.92487 -1 -1 3.92487 -1 10H1C1 5.02944 5.02944 1 10 1V-1Z" fill="#CC9933"/>
</svg>
